<mxfile host="Electron" modified="2024-04-06T18:26:29.217Z" agent="Mozilla/5.0 (Windows NT 10.0; Win64; x64) AppleWebKit/537.36 (KHTML, like Gecko) draw.io/24.1.0 Chrome/120.0.6099.109 Electron/28.1.0 Safari/537.36" etag="fYnje9xWgQV_Ytw4uKEt" version="24.1.0" type="device">
  <diagram id="C5RBs43oDa-KdzZeNtuy" name="Page-1">
    <mxGraphModel dx="3397" dy="809" grid="1" gridSize="10" guides="1" tooltips="1" connect="1" arrows="1" fold="1" page="1" pageScale="1" pageWidth="827" pageHeight="1169" math="0" shadow="0">
      <root>
        <mxCell id="WIyWlLk6GJQsqaUBKTNV-0" />
        <mxCell id="WIyWlLk6GJQsqaUBKTNV-1" parent="WIyWlLk6GJQsqaUBKTNV-0" />
        <mxCell id="YXv2_b7XNe8bQNMkJzrX-188" value="" style="rounded=0;whiteSpace=wrap;html=1;fillColor=none;" parent="WIyWlLk6GJQsqaUBKTNV-1" vertex="1">
          <mxGeometry x="-1500" y="620" width="610" height="316" as="geometry" />
        </mxCell>
        <mxCell id="YXv2_b7XNe8bQNMkJzrX-197" value="&lt;font style=&quot;font-size: 22px;&quot;&gt;Container&lt;/font&gt;" style="html=1;whiteSpace=wrap;fillColor=none;" parent="WIyWlLk6GJQsqaUBKTNV-1" vertex="1">
          <mxGeometry x="-1500" y="570" width="610" height="50" as="geometry" />
        </mxCell>
        <mxCell id="YXv2_b7XNe8bQNMkJzrX-31" value="Character&#xa;&lt;&lt;abstract&gt;&gt;" style="swimlane;fontStyle=2;align=center;verticalAlign=top;childLayout=stackLayout;horizontal=1;startSize=40;horizontalStack=0;resizeParent=1;resizeLast=0;collapsible=1;marginBottom=0;rounded=0;shadow=0;strokeWidth=1;" parent="WIyWlLk6GJQsqaUBKTNV-1" vertex="1">
          <mxGeometry x="-750" y="580" width="290" height="300" as="geometry">
            <mxRectangle x="240" y="585" width="160" height="26" as="alternateBounds" />
          </mxGeometry>
        </mxCell>
        <mxCell id="YXv2_b7XNe8bQNMkJzrX-32" value="- healthPoints: int" style="text;align=left;verticalAlign=top;spacingLeft=4;spacingRight=4;overflow=hidden;rotatable=0;points=[[0,0.5],[1,0.5]];portConstraint=eastwest;" parent="YXv2_b7XNe8bQNMkJzrX-31" vertex="1">
          <mxGeometry y="40" width="290" height="26" as="geometry" />
        </mxCell>
        <mxCell id="YXv2_b7XNe8bQNMkJzrX-33" value="- name: string" style="text;align=left;verticalAlign=top;spacingLeft=4;spacingRight=4;overflow=hidden;rotatable=0;points=[[0,0.5],[1,0.5]];portConstraint=eastwest;rounded=0;shadow=0;html=0;" parent="YXv2_b7XNe8bQNMkJzrX-31" vertex="1">
          <mxGeometry y="66" width="290" height="26" as="geometry" />
        </mxCell>
        <mxCell id="YXv2_b7XNe8bQNMkJzrX-35" value="" style="line;html=1;strokeWidth=1;align=left;verticalAlign=middle;spacingTop=-1;spacingLeft=3;spacingRight=3;rotatable=0;labelPosition=right;points=[];portConstraint=eastwest;" parent="YXv2_b7XNe8bQNMkJzrX-31" vertex="1">
          <mxGeometry y="92" width="290" height="8" as="geometry" />
        </mxCell>
        <mxCell id="YXv2_b7XNe8bQNMkJzrX-36" value="+ getName(): string" style="text;align=left;verticalAlign=top;spacingLeft=4;spacingRight=4;overflow=hidden;rotatable=0;points=[[0,0.5],[1,0.5]];portConstraint=eastwest;" parent="YXv2_b7XNe8bQNMkJzrX-31" vertex="1">
          <mxGeometry y="100" width="290" height="26" as="geometry" />
        </mxCell>
        <mxCell id="YXv2_b7XNe8bQNMkJzrX-62" value="+ getHP(): int" style="text;align=left;verticalAlign=top;spacingLeft=4;spacingRight=4;overflow=hidden;rotatable=0;points=[[0,0.5],[1,0.5]];portConstraint=eastwest;" parent="YXv2_b7XNe8bQNMkJzrX-31" vertex="1">
          <mxGeometry y="126" width="290" height="26" as="geometry" />
        </mxCell>
        <mxCell id="YXv2_b7XNe8bQNMkJzrX-66" value="- takeDamage(damage: int): void" style="text;align=left;verticalAlign=top;spacingLeft=4;spacingRight=4;overflow=hidden;rotatable=0;points=[[0,0.5],[1,0.5]];portConstraint=eastwest;" parent="YXv2_b7XNe8bQNMkJzrX-31" vertex="1">
          <mxGeometry y="152" width="290" height="26" as="geometry" />
        </mxCell>
        <mxCell id="YXv2_b7XNe8bQNMkJzrX-68" value="- heal(healValue: int): void" style="text;align=left;verticalAlign=top;spacingLeft=4;spacingRight=4;overflow=hidden;rotatable=0;points=[[0,0.5],[1,0.5]];portConstraint=eastwest;" parent="YXv2_b7XNe8bQNMkJzrX-31" vertex="1">
          <mxGeometry y="178" width="290" height="26" as="geometry" />
        </mxCell>
        <mxCell id="YXv2_b7XNe8bQNMkJzrX-146" value="# obtainItemSideEffect(item: PhysicalItem): void" style="text;align=left;verticalAlign=top;spacingLeft=4;spacingRight=4;overflow=hidden;rotatable=0;points=[[0,0.5],[1,0.5]];portConstraint=eastwest;fontStyle=2" parent="YXv2_b7XNe8bQNMkJzrX-31" vertex="1">
          <mxGeometry y="204" width="290" height="26" as="geometry" />
        </mxCell>
        <mxCell id="YXv2_b7XNe8bQNMkJzrX-147" value="# loseItemSideEffect(item: PhysicalItem): void" style="text;align=left;verticalAlign=top;spacingLeft=4;spacingRight=4;overflow=hidden;rotatable=0;points=[[0,0.5],[1,0.5]];portConstraint=eastwest;fontStyle=2" parent="YXv2_b7XNe8bQNMkJzrX-31" vertex="1">
          <mxGeometry y="230" width="290" height="26" as="geometry" />
        </mxCell>
        <mxCell id="YXv2_b7XNe8bQNMkJzrX-199" value="# print(os: ostream): void" style="text;align=left;verticalAlign=top;spacingLeft=4;spacingRight=4;overflow=hidden;rotatable=0;points=[[0,0.5],[1,0.5]];portConstraint=eastwest;fontStyle=2" parent="YXv2_b7XNe8bQNMkJzrX-31" vertex="1">
          <mxGeometry y="256" width="290" height="26" as="geometry" />
        </mxCell>
        <mxCell id="YXv2_b7XNe8bQNMkJzrX-37" value="Potion" style="swimlane;fontStyle=0;align=center;verticalAlign=top;childLayout=stackLayout;horizontal=1;startSize=26;horizontalStack=0;resizeParent=1;resizeLast=0;collapsible=1;marginBottom=0;rounded=0;shadow=0;strokeWidth=1;" parent="WIyWlLk6GJQsqaUBKTNV-1" vertex="1">
          <mxGeometry x="340" y="1110" width="290" height="210" as="geometry">
            <mxRectangle x="130" y="380" width="160" height="26" as="alternateBounds" />
          </mxGeometry>
        </mxCell>
        <mxCell id="YXv2_b7XNe8bQNMkJzrX-38" value="- healValue: int" style="text;align=left;verticalAlign=top;spacingLeft=4;spacingRight=4;overflow=hidden;rotatable=0;points=[[0,0.5],[1,0.5]];portConstraint=eastwest;" parent="YXv2_b7XNe8bQNMkJzrX-37" vertex="1">
          <mxGeometry y="26" width="290" height="26" as="geometry" />
        </mxCell>
        <mxCell id="YXv2_b7XNe8bQNMkJzrX-40" value="" style="line;html=1;strokeWidth=1;align=left;verticalAlign=middle;spacingTop=-1;spacingLeft=3;spacingRight=3;rotatable=0;labelPosition=right;points=[];portConstraint=eastwest;" parent="YXv2_b7XNe8bQNMkJzrX-37" vertex="1">
          <mxGeometry y="52" width="290" height="8" as="geometry" />
        </mxCell>
        <mxCell id="YXv2_b7XNe8bQNMkJzrX-42" value="+ getHealValue(): int" style="text;align=left;verticalAlign=top;spacingLeft=4;spacingRight=4;overflow=hidden;rotatable=0;points=[[0,0.5],[1,0.5]];portConstraint=eastwest;" parent="YXv2_b7XNe8bQNMkJzrX-37" vertex="1">
          <mxGeometry y="60" width="290" height="26" as="geometry" />
        </mxCell>
        <mxCell id="CiMp_3YdJ6vmqiC8qv2R-1" value="- useLogic(user: Character, target: Character): void" style="text;align=left;verticalAlign=top;spacingLeft=4;spacingRight=4;overflow=hidden;rotatable=0;points=[[0,0.5],[1,0.5]];portConstraint=eastwest;" parent="YXv2_b7XNe8bQNMkJzrX-37" vertex="1">
          <mxGeometry y="86" width="290" height="26" as="geometry" />
        </mxCell>
        <mxCell id="CiMp_3YdJ6vmqiC8qv2R-11" value="# print(os: ostream): void" style="text;align=left;verticalAlign=top;spacingLeft=4;spacingRight=4;overflow=hidden;rotatable=0;points=[[0,0.5],[1,0.5]];portConstraint=eastwest;fontStyle=0" parent="YXv2_b7XNe8bQNMkJzrX-37" vertex="1">
          <mxGeometry y="112" width="290" height="26" as="geometry" />
        </mxCell>
        <mxCell id="CiMp_3YdJ6vmqiC8qv2R-15" value="+ setup(): void " style="text;align=left;verticalAlign=top;spacingLeft=4;spacingRight=4;overflow=hidden;rotatable=0;points=[[0,0.5],[1,0.5]];portConstraint=eastwest;" parent="YXv2_b7XNe8bQNMkJzrX-37" vertex="1">
          <mxGeometry y="138" width="290" height="26" as="geometry" />
        </mxCell>
        <mxCell id="YXv2_b7XNe8bQNMkJzrX-43" value="" style="endArrow=block;endSize=10;endFill=0;shadow=0;strokeWidth=1;rounded=0;edgeStyle=elbowEdgeStyle;elbow=vertical;entryX=0.5;entryY=1;entryDx=0;entryDy=0;exitX=0.5;exitY=0;exitDx=0;exitDy=0;" parent="WIyWlLk6GJQsqaUBKTNV-1" source="YXv2_b7XNe8bQNMkJzrX-37" target="YXv2_b7XNe8bQNMkJzrX-48" edge="1">
          <mxGeometry width="160" relative="1" as="geometry">
            <mxPoint x="-195" y="668" as="sourcePoint" />
            <mxPoint x="-195" y="668" as="targetPoint" />
          </mxGeometry>
        </mxCell>
        <mxCell id="YXv2_b7XNe8bQNMkJzrX-44" value="Weapon" style="swimlane;fontStyle=0;align=center;verticalAlign=top;childLayout=stackLayout;horizontal=1;startSize=26;horizontalStack=0;resizeParent=1;resizeLast=0;collapsible=1;marginBottom=0;rounded=0;shadow=0;strokeWidth=1;" parent="WIyWlLk6GJQsqaUBKTNV-1" vertex="1">
          <mxGeometry y="1110" width="290" height="210" as="geometry">
            <mxRectangle x="340" y="380" width="170" height="26" as="alternateBounds" />
          </mxGeometry>
        </mxCell>
        <mxCell id="YXv2_b7XNe8bQNMkJzrX-45" value="- damage: int" style="text;align=left;verticalAlign=top;spacingLeft=4;spacingRight=4;overflow=hidden;rotatable=0;points=[[0,0.5],[1,0.5]];portConstraint=eastwest;" parent="YXv2_b7XNe8bQNMkJzrX-44" vertex="1">
          <mxGeometry y="26" width="290" height="26" as="geometry" />
        </mxCell>
        <mxCell id="YXv2_b7XNe8bQNMkJzrX-46" value="" style="line;html=1;strokeWidth=1;align=left;verticalAlign=middle;spacingTop=-1;spacingLeft=3;spacingRight=3;rotatable=0;labelPosition=right;points=[];portConstraint=eastwest;" parent="YXv2_b7XNe8bQNMkJzrX-44" vertex="1">
          <mxGeometry y="52" width="290" height="8" as="geometry" />
        </mxCell>
        <mxCell id="YXv2_b7XNe8bQNMkJzrX-82" value="+ getDamage(): int" style="text;align=left;verticalAlign=top;spacingLeft=4;spacingRight=4;overflow=hidden;rotatable=0;points=[[0,0.5],[1,0.5]];portConstraint=eastwest;" parent="YXv2_b7XNe8bQNMkJzrX-44" vertex="1">
          <mxGeometry y="60" width="290" height="26" as="geometry" />
        </mxCell>
        <mxCell id="CiMp_3YdJ6vmqiC8qv2R-12" value="- useLogic(user: Character, target: Character): void" style="text;align=left;verticalAlign=top;spacingLeft=4;spacingRight=4;overflow=hidden;rotatable=0;points=[[0,0.5],[1,0.5]];portConstraint=eastwest;" parent="YXv2_b7XNe8bQNMkJzrX-44" vertex="1">
          <mxGeometry y="86" width="290" height="26" as="geometry" />
        </mxCell>
        <mxCell id="CiMp_3YdJ6vmqiC8qv2R-13" value="# print(os: ostream): void" style="text;align=left;verticalAlign=top;spacingLeft=4;spacingRight=4;overflow=hidden;rotatable=0;points=[[0,0.5],[1,0.5]];portConstraint=eastwest;fontStyle=0" parent="YXv2_b7XNe8bQNMkJzrX-44" vertex="1">
          <mxGeometry y="112" width="290" height="26" as="geometry" />
        </mxCell>
        <mxCell id="CiMp_3YdJ6vmqiC8qv2R-14" value="+ setup(): void " style="text;align=left;verticalAlign=top;spacingLeft=4;spacingRight=4;overflow=hidden;rotatable=0;points=[[0,0.5],[1,0.5]];portConstraint=eastwest;" parent="YXv2_b7XNe8bQNMkJzrX-44" vertex="1">
          <mxGeometry y="138" width="290" height="26" as="geometry" />
        </mxCell>
        <mxCell id="YXv2_b7XNe8bQNMkJzrX-47" value="" style="endArrow=block;endSize=10;endFill=0;shadow=0;strokeWidth=1;rounded=0;edgeStyle=elbowEdgeStyle;elbow=vertical;entryX=0.5;entryY=1;entryDx=0;entryDy=0;" parent="WIyWlLk6GJQsqaUBKTNV-1" source="YXv2_b7XNe8bQNMkJzrX-44" target="YXv2_b7XNe8bQNMkJzrX-48" edge="1">
          <mxGeometry width="160" relative="1" as="geometry">
            <mxPoint x="-185" y="838" as="sourcePoint" />
            <mxPoint x="-85" y="736" as="targetPoint" />
          </mxGeometry>
        </mxCell>
        <mxCell id="YXv2_b7XNe8bQNMkJzrX-48" value="PhysicalItem&#xa;&lt;&lt;abstract&gt;&gt;&#xa;" style="swimlane;fontStyle=2;align=center;verticalAlign=top;childLayout=stackLayout;horizontal=1;startSize=46;horizontalStack=0;resizeParent=1;resizeLast=0;collapsible=1;marginBottom=0;rounded=0;shadow=0;strokeWidth=1;" parent="WIyWlLk6GJQsqaUBKTNV-1" vertex="1">
          <mxGeometry x="-100" y="580" width="440" height="412" as="geometry">
            <mxRectangle x="550" y="140" width="160" height="26" as="alternateBounds" />
          </mxGeometry>
        </mxCell>
        <mxCell id="YXv2_b7XNe8bQNMkJzrX-49" value="- isUsableOnce: bool" style="text;align=left;verticalAlign=top;spacingLeft=4;spacingRight=4;overflow=hidden;rotatable=0;points=[[0,0.5],[1,0.5]];portConstraint=eastwest;" parent="YXv2_b7XNe8bQNMkJzrX-48" vertex="1">
          <mxGeometry y="46" width="440" height="26" as="geometry" />
        </mxCell>
        <mxCell id="YXv2_b7XNe8bQNMkJzrX-50" value="- owner: Character" style="text;align=left;verticalAlign=top;spacingLeft=4;spacingRight=4;overflow=hidden;rotatable=0;points=[[0,0.5],[1,0.5]];portConstraint=eastwest;rounded=0;shadow=0;html=0;" parent="YXv2_b7XNe8bQNMkJzrX-48" vertex="1">
          <mxGeometry y="72" width="440" height="26" as="geometry" />
        </mxCell>
        <mxCell id="YXv2_b7XNe8bQNMkJzrX-51" value="- name: string" style="text;align=left;verticalAlign=top;spacingLeft=4;spacingRight=4;overflow=hidden;rotatable=0;points=[[0,0.5],[1,0.5]];portConstraint=eastwest;rounded=0;shadow=0;html=0;" parent="YXv2_b7XNe8bQNMkJzrX-48" vertex="1">
          <mxGeometry y="98" width="440" height="26" as="geometry" />
        </mxCell>
        <mxCell id="YXv2_b7XNe8bQNMkJzrX-54" value="" style="line;html=1;strokeWidth=1;align=left;verticalAlign=middle;spacingTop=-1;spacingLeft=3;spacingRight=3;rotatable=0;labelPosition=right;points=[];portConstraint=eastwest;" parent="YXv2_b7XNe8bQNMkJzrX-48" vertex="1">
          <mxGeometry y="124" width="440" height="8" as="geometry" />
        </mxCell>
        <mxCell id="YXv2_b7XNe8bQNMkJzrX-55" value="+ use(user: Character, target: Character): void" style="text;align=left;verticalAlign=top;spacingLeft=4;spacingRight=4;overflow=hidden;rotatable=0;points=[[0,0.5],[1,0.5]];portConstraint=eastwest;" parent="YXv2_b7XNe8bQNMkJzrX-48" vertex="1">
          <mxGeometry y="132" width="440" height="26" as="geometry" />
        </mxCell>
        <mxCell id="YXv2_b7XNe8bQNMkJzrX-56" value="+ getName(): string" style="text;align=left;verticalAlign=top;spacingLeft=4;spacingRight=4;overflow=hidden;rotatable=0;points=[[0,0.5],[1,0.5]];portConstraint=eastwest;" parent="YXv2_b7XNe8bQNMkJzrX-48" vertex="1">
          <mxGeometry y="158" width="440" height="26" as="geometry" />
        </mxCell>
        <mxCell id="YXv2_b7XNe8bQNMkJzrX-209" value="+ {virtual} setup(): void " style="text;align=left;verticalAlign=top;spacingLeft=4;spacingRight=4;overflow=hidden;rotatable=0;points=[[0,0.5],[1,0.5]];portConstraint=eastwest;" parent="YXv2_b7XNe8bQNMkJzrX-48" vertex="1">
          <mxGeometry y="184" width="440" height="26" as="geometry" />
        </mxCell>
        <mxCell id="YXv2_b7XNe8bQNMkJzrX-79" value="# getOwner(): Character" style="text;align=left;verticalAlign=top;spacingLeft=4;spacingRight=4;overflow=hidden;rotatable=0;points=[[0,0.5],[1,0.5]];portConstraint=eastwest;" parent="YXv2_b7XNe8bQNMkJzrX-48" vertex="1">
          <mxGeometry y="210" width="440" height="26" as="geometry" />
        </mxCell>
        <mxCell id="YXv2_b7XNe8bQNMkJzrX-202" value="# useCondition(user: Character, Character: target): void" style="text;align=left;verticalAlign=top;spacingLeft=4;spacingRight=4;overflow=hidden;rotatable=0;points=[[0,0.5],[1,0.5]];portConstraint=eastwest;" parent="YXv2_b7XNe8bQNMkJzrX-48" vertex="1">
          <mxGeometry y="236" width="440" height="26" as="geometry" />
        </mxCell>
        <mxCell id="YXv2_b7XNe8bQNMkJzrX-204" value="# giveDamageTo(to: Character, damage: int): void" style="text;align=left;verticalAlign=top;spacingLeft=4;spacingRight=4;overflow=hidden;rotatable=0;points=[[0,0.5],[1,0.5]];portConstraint=eastwest;" parent="YXv2_b7XNe8bQNMkJzrX-48" vertex="1">
          <mxGeometry y="262" width="440" height="26" as="geometry" />
        </mxCell>
        <mxCell id="YXv2_b7XNe8bQNMkJzrX-205" value="# giveHealTo(to: Character, heal: int): void" style="text;align=left;verticalAlign=top;spacingLeft=4;spacingRight=4;overflow=hidden;rotatable=0;points=[[0,0.5],[1,0.5]];portConstraint=eastwest;" parent="YXv2_b7XNe8bQNMkJzrX-48" vertex="1">
          <mxGeometry y="288" width="440" height="26" as="geometry" />
        </mxCell>
        <mxCell id="YXv2_b7XNe8bQNMkJzrX-207" value="# afterUse(): void " style="text;align=left;verticalAlign=top;spacingLeft=4;spacingRight=4;overflow=hidden;rotatable=0;points=[[0,0.5],[1,0.5]];portConstraint=eastwest;" parent="YXv2_b7XNe8bQNMkJzrX-48" vertex="1">
          <mxGeometry y="314" width="440" height="26" as="geometry" />
        </mxCell>
        <mxCell id="YXv2_b7XNe8bQNMkJzrX-203" value="# useLogic(user: Character, target: Character): void" style="text;align=left;verticalAlign=top;spacingLeft=4;spacingRight=4;overflow=hidden;rotatable=0;points=[[0,0.5],[1,0.5]];portConstraint=eastwest;fontStyle=2" parent="YXv2_b7XNe8bQNMkJzrX-48" vertex="1">
          <mxGeometry y="340" width="440" height="26" as="geometry" />
        </mxCell>
        <mxCell id="YXv2_b7XNe8bQNMkJzrX-206" value="# print(os: ostream): void" style="text;align=left;verticalAlign=top;spacingLeft=4;spacingRight=4;overflow=hidden;rotatable=0;points=[[0,0.5],[1,0.5]];portConstraint=eastwest;fontStyle=2" parent="YXv2_b7XNe8bQNMkJzrX-48" vertex="1">
          <mxGeometry y="366" width="440" height="26" as="geometry" />
        </mxCell>
        <mxCell id="YXv2_b7XNe8bQNMkJzrX-83" value="Spell" style="swimlane;fontStyle=0;align=center;verticalAlign=top;childLayout=stackLayout;horizontal=1;startSize=26;horizontalStack=0;resizeParent=1;resizeLast=0;collapsible=1;marginBottom=0;rounded=0;shadow=0;strokeWidth=1;" parent="WIyWlLk6GJQsqaUBKTNV-1" vertex="1">
          <mxGeometry x="670" y="1110" width="280" height="210" as="geometry">
            <mxRectangle x="340" y="380" width="170" height="26" as="alternateBounds" />
          </mxGeometry>
        </mxCell>
        <mxCell id="YXv2_b7XNe8bQNMkJzrX-84" value="- allowedTargets: Character[]" style="text;align=left;verticalAlign=top;spacingLeft=4;spacingRight=4;overflow=hidden;rotatable=0;points=[[0,0.5],[1,0.5]];portConstraint=eastwest;" parent="YXv2_b7XNe8bQNMkJzrX-83" vertex="1">
          <mxGeometry y="26" width="280" height="26" as="geometry" />
        </mxCell>
        <mxCell id="YXv2_b7XNe8bQNMkJzrX-85" value="" style="line;html=1;strokeWidth=1;align=left;verticalAlign=middle;spacingTop=-1;spacingLeft=3;spacingRight=3;rotatable=0;labelPosition=right;points=[];portConstraint=eastwest;" parent="YXv2_b7XNe8bQNMkJzrX-83" vertex="1">
          <mxGeometry y="52" width="280" height="8" as="geometry" />
        </mxCell>
        <mxCell id="YXv2_b7XNe8bQNMkJzrX-86" value="+ getNumAllowedTargets(): int" style="text;align=left;verticalAlign=top;spacingLeft=4;spacingRight=4;overflow=hidden;rotatable=0;points=[[0,0.5],[1,0.5]];portConstraint=eastwest;" parent="YXv2_b7XNe8bQNMkJzrX-83" vertex="1">
          <mxGeometry y="60" width="280" height="26" as="geometry" />
        </mxCell>
        <mxCell id="CiMp_3YdJ6vmqiC8qv2R-2" value="- useLogic(user: Character, target: Character): void" style="text;align=left;verticalAlign=top;spacingLeft=4;spacingRight=4;overflow=hidden;rotatable=0;points=[[0,0.5],[1,0.5]];portConstraint=eastwest;" parent="YXv2_b7XNe8bQNMkJzrX-83" vertex="1">
          <mxGeometry y="86" width="280" height="26" as="geometry" />
        </mxCell>
        <mxCell id="CiMp_3YdJ6vmqiC8qv2R-9" value="# print(os: ostream): void" style="text;align=left;verticalAlign=top;spacingLeft=4;spacingRight=4;overflow=hidden;rotatable=0;points=[[0,0.5],[1,0.5]];portConstraint=eastwest;fontStyle=0" parent="YXv2_b7XNe8bQNMkJzrX-83" vertex="1">
          <mxGeometry y="112" width="280" height="26" as="geometry" />
        </mxCell>
        <mxCell id="CiMp_3YdJ6vmqiC8qv2R-16" value="+ setup(): void " style="text;align=left;verticalAlign=top;spacingLeft=4;spacingRight=4;overflow=hidden;rotatable=0;points=[[0,0.5],[1,0.5]];portConstraint=eastwest;" parent="YXv2_b7XNe8bQNMkJzrX-83" vertex="1">
          <mxGeometry y="138" width="280" height="26" as="geometry" />
        </mxCell>
        <mxCell id="YXv2_b7XNe8bQNMkJzrX-87" value="" style="endArrow=block;endSize=10;endFill=0;shadow=0;strokeWidth=1;rounded=0;edgeStyle=elbowEdgeStyle;elbow=vertical;entryX=0.5;entryY=1;entryDx=0;entryDy=0;exitX=0.5;exitY=0;exitDx=0;exitDy=0;" parent="WIyWlLk6GJQsqaUBKTNV-1" source="YXv2_b7XNe8bQNMkJzrX-83" target="YXv2_b7XNe8bQNMkJzrX-48" edge="1">
          <mxGeometry width="160" relative="1" as="geometry">
            <mxPoint x="440" y="1080" as="sourcePoint" />
            <mxPoint x="440" y="940" as="targetPoint" />
          </mxGeometry>
        </mxCell>
        <mxCell id="YXv2_b7XNe8bQNMkJzrX-93" value="PotionUser&#xa;&lt;&lt;abstract&gt;&gt;&#xa;" style="swimlane;fontStyle=2;align=center;verticalAlign=top;childLayout=stackLayout;horizontal=1;startSize=40;horizontalStack=0;resizeParent=1;resizeLast=0;collapsible=1;marginBottom=0;rounded=0;shadow=0;strokeWidth=1;" parent="WIyWlLk6GJQsqaUBKTNV-1" vertex="1">
          <mxGeometry x="-710" y="1110" width="290" height="144" as="geometry">
            <mxRectangle x="130" y="380" width="160" height="26" as="alternateBounds" />
          </mxGeometry>
        </mxCell>
        <mxCell id="YXv2_b7XNe8bQNMkJzrX-94" value="# medicalBag: MedicalBag" style="text;align=left;verticalAlign=top;spacingLeft=4;spacingRight=4;overflow=hidden;rotatable=0;points=[[0,0.5],[1,0.5]];portConstraint=eastwest;" parent="YXv2_b7XNe8bQNMkJzrX-93" vertex="1">
          <mxGeometry y="40" width="290" height="26" as="geometry" />
        </mxCell>
        <mxCell id="YXv2_b7XNe8bQNMkJzrX-96" value="" style="line;html=1;strokeWidth=1;align=left;verticalAlign=middle;spacingTop=-1;spacingLeft=3;spacingRight=3;rotatable=0;labelPosition=right;points=[];portConstraint=eastwest;" parent="YXv2_b7XNe8bQNMkJzrX-93" vertex="1">
          <mxGeometry y="66" width="290" height="8" as="geometry" />
        </mxCell>
        <mxCell id="YXv2_b7XNe8bQNMkJzrX-98" value="+ drink(target: Character, potionName: string): void" style="text;align=left;verticalAlign=top;spacingLeft=4;spacingRight=4;overflow=hidden;rotatable=0;points=[[0,0.5],[1,0.5]];portConstraint=eastwest;" parent="YXv2_b7XNe8bQNMkJzrX-93" vertex="1">
          <mxGeometry y="74" width="290" height="26" as="geometry" />
        </mxCell>
        <mxCell id="YXv2_b7XNe8bQNMkJzrX-102" value="+ showPotions(): void" style="text;align=left;verticalAlign=top;spacingLeft=4;spacingRight=4;overflow=hidden;rotatable=0;points=[[0,0.5],[1,0.5]];portConstraint=eastwest;" parent="YXv2_b7XNe8bQNMkJzrX-93" vertex="1">
          <mxGeometry y="100" width="290" height="26" as="geometry" />
        </mxCell>
        <mxCell id="YXv2_b7XNe8bQNMkJzrX-99" value="" style="endArrow=block;endSize=10;endFill=0;shadow=0;strokeWidth=1;rounded=0;edgeStyle=elbowEdgeStyle;elbow=vertical;entryX=0.5;entryY=1;entryDx=0;entryDy=0;exitX=0.602;exitY=0.008;exitDx=0;exitDy=0;exitPerimeter=0;" parent="WIyWlLk6GJQsqaUBKTNV-1" source="YXv2_b7XNe8bQNMkJzrX-93" target="YXv2_b7XNe8bQNMkJzrX-31" edge="1">
          <mxGeometry width="160" relative="1" as="geometry">
            <mxPoint x="-390" y="1106" as="sourcePoint" />
            <mxPoint x="-133" y="966" as="targetPoint" />
            <Array as="points">
              <mxPoint x="-560" y="1050" />
            </Array>
          </mxGeometry>
        </mxCell>
        <mxCell id="YXv2_b7XNe8bQNMkJzrX-104" value="WeaponUser&#xa;&lt;&lt;abstract&gt;&gt;&#xa;" style="swimlane;fontStyle=2;align=center;verticalAlign=top;childLayout=stackLayout;horizontal=1;startSize=40;horizontalStack=0;resizeParent=1;resizeLast=0;collapsible=1;marginBottom=0;rounded=0;shadow=0;strokeWidth=1;" parent="WIyWlLk6GJQsqaUBKTNV-1" vertex="1">
          <mxGeometry x="-1080" y="1110" width="317" height="144" as="geometry">
            <mxRectangle x="130" y="380" width="160" height="26" as="alternateBounds" />
          </mxGeometry>
        </mxCell>
        <mxCell id="YXv2_b7XNe8bQNMkJzrX-105" value="# arsenal: Arsenal" style="text;align=left;verticalAlign=top;spacingLeft=4;spacingRight=4;overflow=hidden;rotatable=0;points=[[0,0.5],[1,0.5]];portConstraint=eastwest;" parent="YXv2_b7XNe8bQNMkJzrX-104" vertex="1">
          <mxGeometry y="40" width="317" height="26" as="geometry" />
        </mxCell>
        <mxCell id="YXv2_b7XNe8bQNMkJzrX-106" value="" style="line;html=1;strokeWidth=1;align=left;verticalAlign=middle;spacingTop=-1;spacingLeft=3;spacingRight=3;rotatable=0;labelPosition=right;points=[];portConstraint=eastwest;" parent="YXv2_b7XNe8bQNMkJzrX-104" vertex="1">
          <mxGeometry y="66" width="317" height="8" as="geometry" />
        </mxCell>
        <mxCell id="YXv2_b7XNe8bQNMkJzrX-107" value="+ attack(target : Character, weaponName: string): void" style="text;align=left;verticalAlign=top;spacingLeft=4;spacingRight=4;overflow=hidden;rotatable=0;points=[[0,0.5],[1,0.5]];portConstraint=eastwest;" parent="YXv2_b7XNe8bQNMkJzrX-104" vertex="1">
          <mxGeometry y="74" width="317" height="26" as="geometry" />
        </mxCell>
        <mxCell id="YXv2_b7XNe8bQNMkJzrX-108" value="+ showWeapons(): void" style="text;align=left;verticalAlign=top;spacingLeft=4;spacingRight=4;overflow=hidden;rotatable=0;points=[[0,0.5],[1,0.5]];portConstraint=eastwest;" parent="YXv2_b7XNe8bQNMkJzrX-104" vertex="1">
          <mxGeometry y="100" width="317" height="26" as="geometry" />
        </mxCell>
        <mxCell id="YXv2_b7XNe8bQNMkJzrX-110" value="" style="endArrow=block;endSize=10;endFill=0;shadow=0;strokeWidth=1;rounded=0;edgeStyle=elbowEdgeStyle;elbow=vertical;entryX=0.5;entryY=1;entryDx=0;entryDy=0;exitX=0.5;exitY=0;exitDx=0;exitDy=0;" parent="WIyWlLk6GJQsqaUBKTNV-1" source="YXv2_b7XNe8bQNMkJzrX-104" target="YXv2_b7XNe8bQNMkJzrX-31" edge="1">
          <mxGeometry width="160" relative="1" as="geometry">
            <mxPoint x="-1037" y="1120" as="sourcePoint" />
            <mxPoint x="-570" y="960" as="targetPoint" />
            <Array as="points">
              <mxPoint x="-790" y="1050" />
            </Array>
          </mxGeometry>
        </mxCell>
        <mxCell id="YXv2_b7XNe8bQNMkJzrX-116" value="SpellUser&#xa;&lt;&lt;abstract&gt;&gt;&#xa;" style="swimlane;fontStyle=2;align=center;verticalAlign=top;childLayout=stackLayout;horizontal=1;startSize=40;horizontalStack=0;resizeParent=1;resizeLast=0;collapsible=1;marginBottom=0;rounded=0;shadow=0;strokeWidth=1;" parent="WIyWlLk6GJQsqaUBKTNV-1" vertex="1">
          <mxGeometry x="-350" y="1110" width="300" height="144" as="geometry">
            <mxRectangle x="130" y="380" width="160" height="26" as="alternateBounds" />
          </mxGeometry>
        </mxCell>
        <mxCell id="YXv2_b7XNe8bQNMkJzrX-117" value="# spellBook: SpellBook" style="text;align=left;verticalAlign=top;spacingLeft=4;spacingRight=4;overflow=hidden;rotatable=0;points=[[0,0.5],[1,0.5]];portConstraint=eastwest;" parent="YXv2_b7XNe8bQNMkJzrX-116" vertex="1">
          <mxGeometry y="40" width="300" height="26" as="geometry" />
        </mxCell>
        <mxCell id="YXv2_b7XNe8bQNMkJzrX-118" value="" style="line;html=1;strokeWidth=1;align=left;verticalAlign=middle;spacingTop=-1;spacingLeft=3;spacingRight=3;rotatable=0;labelPosition=right;points=[];portConstraint=eastwest;" parent="YXv2_b7XNe8bQNMkJzrX-116" vertex="1">
          <mxGeometry y="66" width="300" height="8" as="geometry" />
        </mxCell>
        <mxCell id="YXv2_b7XNe8bQNMkJzrX-119" value="+ cast(target: Character, spellName: string): void" style="text;align=left;verticalAlign=top;spacingLeft=4;spacingRight=4;overflow=hidden;rotatable=0;points=[[0,0.5],[1,0.5]];portConstraint=eastwest;" parent="YXv2_b7XNe8bQNMkJzrX-116" vertex="1">
          <mxGeometry y="74" width="300" height="26" as="geometry" />
        </mxCell>
        <mxCell id="YXv2_b7XNe8bQNMkJzrX-120" value="+ showSpells(): void" style="text;align=left;verticalAlign=top;spacingLeft=4;spacingRight=4;overflow=hidden;rotatable=0;points=[[0,0.5],[1,0.5]];portConstraint=eastwest;" parent="YXv2_b7XNe8bQNMkJzrX-116" vertex="1">
          <mxGeometry y="100" width="300" height="26" as="geometry" />
        </mxCell>
        <mxCell id="YXv2_b7XNe8bQNMkJzrX-121" value="" style="endArrow=block;endSize=10;endFill=0;shadow=0;strokeWidth=1;rounded=0;edgeStyle=elbowEdgeStyle;elbow=vertical;entryX=0.5;entryY=1;entryDx=0;entryDy=0;exitX=0.5;exitY=0;exitDx=0;exitDy=0;" parent="WIyWlLk6GJQsqaUBKTNV-1" source="YXv2_b7XNe8bQNMkJzrX-116" target="YXv2_b7XNe8bQNMkJzrX-31" edge="1">
          <mxGeometry width="160" relative="1" as="geometry">
            <mxPoint x="-570" y="1120" as="sourcePoint" />
            <mxPoint x="-570" y="960" as="targetPoint" />
            <Array as="points">
              <mxPoint x="-330" y="1050" />
            </Array>
          </mxGeometry>
        </mxCell>
        <mxCell id="YXv2_b7XNe8bQNMkJzrX-122" value="Fighter" style="swimlane;fontStyle=0;align=center;verticalAlign=top;childLayout=stackLayout;horizontal=1;startSize=26;horizontalStack=0;resizeParent=1;resizeLast=0;collapsible=1;marginBottom=0;rounded=0;shadow=0;strokeWidth=1;" parent="WIyWlLk6GJQsqaUBKTNV-1" vertex="1">
          <mxGeometry x="-1060" y="1410" width="277" height="164" as="geometry">
            <mxRectangle x="130" y="380" width="160" height="26" as="alternateBounds" />
          </mxGeometry>
        </mxCell>
        <mxCell id="YXv2_b7XNe8bQNMkJzrX-123" value="+ maxAllowedWeapons: int" style="text;align=left;verticalAlign=top;spacingLeft=4;spacingRight=4;overflow=hidden;rotatable=0;points=[[0,0.5],[1,0.5]];portConstraint=eastwest;fontStyle=4" parent="YXv2_b7XNe8bQNMkJzrX-122" vertex="1">
          <mxGeometry y="26" width="277" height="26" as="geometry" />
        </mxCell>
        <mxCell id="YXv2_b7XNe8bQNMkJzrX-130" value="+ maxAllowedPotions: int" style="text;align=left;verticalAlign=top;spacingLeft=4;spacingRight=4;overflow=hidden;rotatable=0;points=[[0,0.5],[1,0.5]];portConstraint=eastwest;fontStyle=4" parent="YXv2_b7XNe8bQNMkJzrX-122" vertex="1">
          <mxGeometry y="52" width="277" height="26" as="geometry" />
        </mxCell>
        <mxCell id="YXv2_b7XNe8bQNMkJzrX-124" value="" style="line;html=1;strokeWidth=1;align=left;verticalAlign=middle;spacingTop=-1;spacingLeft=3;spacingRight=3;rotatable=0;labelPosition=right;points=[];portConstraint=eastwest;" parent="YXv2_b7XNe8bQNMkJzrX-122" vertex="1">
          <mxGeometry y="78" width="277" height="8" as="geometry" />
        </mxCell>
        <mxCell id="CiMp_3YdJ6vmqiC8qv2R-28" value="- print(os: ostream ): void" style="text;align=left;verticalAlign=top;spacingLeft=4;spacingRight=4;overflow=hidden;rotatable=0;points=[[0,0.5],[1,0.5]];portConstraint=eastwest;fontStyle=0" parent="YXv2_b7XNe8bQNMkJzrX-122" vertex="1">
          <mxGeometry y="86" width="277" height="26" as="geometry" />
        </mxCell>
        <mxCell id="CiMp_3YdJ6vmqiC8qv2R-29" value="- obtainItemSideEffect(item: PhysicalItem): void" style="text;align=left;verticalAlign=top;spacingLeft=4;spacingRight=4;overflow=hidden;rotatable=0;points=[[0,0.5],[1,0.5]];portConstraint=eastwest;fontStyle=0" parent="YXv2_b7XNe8bQNMkJzrX-122" vertex="1">
          <mxGeometry y="112" width="277" height="26" as="geometry" />
        </mxCell>
        <mxCell id="CiMp_3YdJ6vmqiC8qv2R-30" value="- loseItemSideEffect(item: PhysicalItem): void" style="text;align=left;verticalAlign=top;spacingLeft=4;spacingRight=4;overflow=hidden;rotatable=0;points=[[0,0.5],[1,0.5]];portConstraint=eastwest;fontStyle=0" parent="YXv2_b7XNe8bQNMkJzrX-122" vertex="1">
          <mxGeometry y="138" width="277" height="26" as="geometry" />
        </mxCell>
        <mxCell id="YXv2_b7XNe8bQNMkJzrX-128" value="" style="endArrow=block;endSize=10;endFill=0;shadow=0;strokeWidth=1;rounded=0;edgeStyle=elbowEdgeStyle;elbow=vertical;entryX=0.5;entryY=1;entryDx=0;entryDy=0;exitX=0.5;exitY=0;exitDx=0;exitDy=0;" parent="WIyWlLk6GJQsqaUBKTNV-1" source="YXv2_b7XNe8bQNMkJzrX-122" target="YXv2_b7XNe8bQNMkJzrX-104" edge="1">
          <mxGeometry width="160" relative="1" as="geometry">
            <mxPoint x="-1020" y="1340" as="sourcePoint" />
            <mxPoint x="-553" y="1180" as="targetPoint" />
          </mxGeometry>
        </mxCell>
        <mxCell id="YXv2_b7XNe8bQNMkJzrX-129" value="" style="endArrow=block;endSize=10;endFill=0;shadow=0;strokeWidth=1;rounded=0;edgeStyle=elbowEdgeStyle;elbow=vertical;exitX=0.5;exitY=0;exitDx=0;exitDy=0;" parent="WIyWlLk6GJQsqaUBKTNV-1" source="YXv2_b7XNe8bQNMkJzrX-122" edge="1">
          <mxGeometry width="160" relative="1" as="geometry">
            <mxPoint x="-1037" y="1410" as="sourcePoint" />
            <mxPoint x="-690" y="1260" as="targetPoint" />
            <Array as="points">
              <mxPoint x="-810" y="1350" />
            </Array>
          </mxGeometry>
        </mxCell>
        <mxCell id="YXv2_b7XNe8bQNMkJzrX-131" value="Archer" style="swimlane;fontStyle=0;align=center;verticalAlign=top;childLayout=stackLayout;horizontal=1;startSize=26;horizontalStack=0;resizeParent=1;resizeLast=0;collapsible=1;marginBottom=0;rounded=0;shadow=0;strokeWidth=1;" parent="WIyWlLk6GJQsqaUBKTNV-1" vertex="1">
          <mxGeometry x="-705" y="1400" width="280" height="190" as="geometry">
            <mxRectangle x="130" y="380" width="160" height="26" as="alternateBounds" />
          </mxGeometry>
        </mxCell>
        <mxCell id="YXv2_b7XNe8bQNMkJzrX-132" value="+ maxAllowedWeapons: int" style="text;align=left;verticalAlign=top;spacingLeft=4;spacingRight=4;overflow=hidden;rotatable=0;points=[[0,0.5],[1,0.5]];portConstraint=eastwest;fontStyle=4" parent="YXv2_b7XNe8bQNMkJzrX-131" vertex="1">
          <mxGeometry y="26" width="280" height="26" as="geometry" />
        </mxCell>
        <mxCell id="YXv2_b7XNe8bQNMkJzrX-133" value="+ maxAllowedPotions: int" style="text;align=left;verticalAlign=top;spacingLeft=4;spacingRight=4;overflow=hidden;rotatable=0;points=[[0,0.5],[1,0.5]];portConstraint=eastwest;fontStyle=4" parent="YXv2_b7XNe8bQNMkJzrX-131" vertex="1">
          <mxGeometry y="52" width="280" height="26" as="geometry" />
        </mxCell>
        <mxCell id="YXv2_b7XNe8bQNMkJzrX-138" value="+ maxAllowedSpells: int" style="text;align=left;verticalAlign=top;spacingLeft=4;spacingRight=4;overflow=hidden;rotatable=0;points=[[0,0.5],[1,0.5]];portConstraint=eastwest;fontStyle=4" parent="YXv2_b7XNe8bQNMkJzrX-131" vertex="1">
          <mxGeometry y="78" width="280" height="26" as="geometry" />
        </mxCell>
        <mxCell id="YXv2_b7XNe8bQNMkJzrX-134" value="" style="line;html=1;strokeWidth=1;align=left;verticalAlign=middle;spacingTop=-1;spacingLeft=3;spacingRight=3;rotatable=0;labelPosition=right;points=[];portConstraint=eastwest;" parent="YXv2_b7XNe8bQNMkJzrX-131" vertex="1">
          <mxGeometry y="104" width="280" height="8" as="geometry" />
        </mxCell>
        <mxCell id="CiMp_3YdJ6vmqiC8qv2R-27" value="- print(os: ostream ): void" style="text;align=left;verticalAlign=top;spacingLeft=4;spacingRight=4;overflow=hidden;rotatable=0;points=[[0,0.5],[1,0.5]];portConstraint=eastwest;fontStyle=0" parent="YXv2_b7XNe8bQNMkJzrX-131" vertex="1">
          <mxGeometry y="112" width="280" height="26" as="geometry" />
        </mxCell>
        <mxCell id="CiMp_3YdJ6vmqiC8qv2R-25" value="- obtainItemSideEffect(item: PhysicalItem): void" style="text;align=left;verticalAlign=top;spacingLeft=4;spacingRight=4;overflow=hidden;rotatable=0;points=[[0,0.5],[1,0.5]];portConstraint=eastwest;fontStyle=0" parent="YXv2_b7XNe8bQNMkJzrX-131" vertex="1">
          <mxGeometry y="138" width="280" height="26" as="geometry" />
        </mxCell>
        <mxCell id="CiMp_3YdJ6vmqiC8qv2R-26" value="- loseItemSideEffect(item: PhysicalItem): void" style="text;align=left;verticalAlign=top;spacingLeft=4;spacingRight=4;overflow=hidden;rotatable=0;points=[[0,0.5],[1,0.5]];portConstraint=eastwest;fontStyle=0" parent="YXv2_b7XNe8bQNMkJzrX-131" vertex="1">
          <mxGeometry y="164" width="280" height="26" as="geometry" />
        </mxCell>
        <mxCell id="YXv2_b7XNe8bQNMkJzrX-135" value="" style="endArrow=block;endSize=10;endFill=0;shadow=0;strokeWidth=1;rounded=0;edgeStyle=elbowEdgeStyle;elbow=vertical;exitX=0.5;exitY=0;exitDx=0;exitDy=0;entryX=0.5;entryY=1;entryDx=0;entryDy=0;" parent="WIyWlLk6GJQsqaUBKTNV-1" source="YXv2_b7XNe8bQNMkJzrX-131" target="YXv2_b7XNe8bQNMkJzrX-93" edge="1">
          <mxGeometry width="160" relative="1" as="geometry">
            <mxPoint x="-1037" y="1410" as="sourcePoint" />
            <mxPoint x="-600" y="1270" as="targetPoint" />
          </mxGeometry>
        </mxCell>
        <mxCell id="YXv2_b7XNe8bQNMkJzrX-136" value="" style="endArrow=block;endSize=10;endFill=0;shadow=0;strokeWidth=1;rounded=0;edgeStyle=elbowEdgeStyle;elbow=vertical;exitX=0.5;exitY=0;exitDx=0;exitDy=0;entryX=0.25;entryY=1;entryDx=0;entryDy=0;" parent="WIyWlLk6GJQsqaUBKTNV-1" source="YXv2_b7XNe8bQNMkJzrX-131" target="YXv2_b7XNe8bQNMkJzrX-116" edge="1">
          <mxGeometry width="160" relative="1" as="geometry">
            <mxPoint x="-570" y="1410" as="sourcePoint" />
            <mxPoint x="-570" y="1264" as="targetPoint" />
            <Array as="points">
              <mxPoint x="-340" y="1330" />
            </Array>
          </mxGeometry>
        </mxCell>
        <mxCell id="YXv2_b7XNe8bQNMkJzrX-137" value="" style="endArrow=block;endSize=10;endFill=0;shadow=0;strokeWidth=1;rounded=0;edgeStyle=elbowEdgeStyle;elbow=vertical;exitX=0.5;exitY=0;exitDx=0;exitDy=0;entryX=0.75;entryY=1;entryDx=0;entryDy=0;" parent="WIyWlLk6GJQsqaUBKTNV-1" source="YXv2_b7XNe8bQNMkJzrX-131" target="YXv2_b7XNe8bQNMkJzrX-104" edge="1">
          <mxGeometry width="160" relative="1" as="geometry">
            <mxPoint x="-680" y="1366" as="sourcePoint" />
            <mxPoint x="-220" y="1220" as="targetPoint" />
            <Array as="points">
              <mxPoint x="-760" y="1330" />
            </Array>
          </mxGeometry>
        </mxCell>
        <mxCell id="YXv2_b7XNe8bQNMkJzrX-139" value="Wizard" style="swimlane;fontStyle=0;align=center;verticalAlign=top;childLayout=stackLayout;horizontal=1;startSize=26;horizontalStack=0;resizeParent=1;resizeLast=0;collapsible=1;marginBottom=0;rounded=0;shadow=0;strokeWidth=1;" parent="WIyWlLk6GJQsqaUBKTNV-1" vertex="1">
          <mxGeometry x="-340" y="1400" width="280" height="164" as="geometry">
            <mxRectangle x="130" y="380" width="160" height="26" as="alternateBounds" />
          </mxGeometry>
        </mxCell>
        <mxCell id="YXv2_b7XNe8bQNMkJzrX-141" value="+ maxAllowedPotions: int" style="text;align=left;verticalAlign=top;spacingLeft=4;spacingRight=4;overflow=hidden;rotatable=0;points=[[0,0.5],[1,0.5]];portConstraint=eastwest;fontStyle=4" parent="YXv2_b7XNe8bQNMkJzrX-139" vertex="1">
          <mxGeometry y="26" width="280" height="26" as="geometry" />
        </mxCell>
        <mxCell id="YXv2_b7XNe8bQNMkJzrX-142" value="+ maxAllowedSpells: int" style="text;align=left;verticalAlign=top;spacingLeft=4;spacingRight=4;overflow=hidden;rotatable=0;points=[[0,0.5],[1,0.5]];portConstraint=eastwest;fontStyle=4" parent="YXv2_b7XNe8bQNMkJzrX-139" vertex="1">
          <mxGeometry y="52" width="280" height="26" as="geometry" />
        </mxCell>
        <mxCell id="YXv2_b7XNe8bQNMkJzrX-143" value="" style="line;html=1;strokeWidth=1;align=left;verticalAlign=middle;spacingTop=-1;spacingLeft=3;spacingRight=3;rotatable=0;labelPosition=right;points=[];portConstraint=eastwest;" parent="YXv2_b7XNe8bQNMkJzrX-139" vertex="1">
          <mxGeometry y="78" width="280" height="8" as="geometry" />
        </mxCell>
        <mxCell id="CiMp_3YdJ6vmqiC8qv2R-31" value="- print(os: ostream ): void" style="text;align=left;verticalAlign=top;spacingLeft=4;spacingRight=4;overflow=hidden;rotatable=0;points=[[0,0.5],[1,0.5]];portConstraint=eastwest;fontStyle=0" parent="YXv2_b7XNe8bQNMkJzrX-139" vertex="1">
          <mxGeometry y="86" width="280" height="26" as="geometry" />
        </mxCell>
        <mxCell id="CiMp_3YdJ6vmqiC8qv2R-32" value="- obtainItemSideEffect(item: PhysicalItem): void" style="text;align=left;verticalAlign=top;spacingLeft=4;spacingRight=4;overflow=hidden;rotatable=0;points=[[0,0.5],[1,0.5]];portConstraint=eastwest;fontStyle=0" parent="YXv2_b7XNe8bQNMkJzrX-139" vertex="1">
          <mxGeometry y="112" width="280" height="26" as="geometry" />
        </mxCell>
        <mxCell id="CiMp_3YdJ6vmqiC8qv2R-33" value="- loseItemSideEffect(item: PhysicalItem): void" style="text;align=left;verticalAlign=top;spacingLeft=4;spacingRight=4;overflow=hidden;rotatable=0;points=[[0,0.5],[1,0.5]];portConstraint=eastwest;fontStyle=0" parent="YXv2_b7XNe8bQNMkJzrX-139" vertex="1">
          <mxGeometry y="138" width="280" height="26" as="geometry" />
        </mxCell>
        <mxCell id="YXv2_b7XNe8bQNMkJzrX-144" value="" style="endArrow=block;endSize=10;endFill=0;shadow=0;strokeWidth=1;rounded=0;edgeStyle=elbowEdgeStyle;elbow=vertical;exitX=0.5;exitY=0;exitDx=0;exitDy=0;entryX=0.5;entryY=1;entryDx=0;entryDy=0;" parent="WIyWlLk6GJQsqaUBKTNV-1" source="YXv2_b7XNe8bQNMkJzrX-139" target="YXv2_b7XNe8bQNMkJzrX-116" edge="1">
          <mxGeometry width="160" relative="1" as="geometry">
            <mxPoint x="-1037" y="1410" as="sourcePoint" />
            <mxPoint x="-180" y="1300" as="targetPoint" />
            <Array as="points">
              <mxPoint x="-140" y="1310" />
            </Array>
          </mxGeometry>
        </mxCell>
        <mxCell id="YXv2_b7XNe8bQNMkJzrX-145" value="" style="endArrow=block;endSize=10;endFill=0;shadow=0;strokeWidth=1;rounded=0;edgeStyle=elbowEdgeStyle;elbow=vertical;exitX=0.5;exitY=0;exitDx=0;exitDy=0;entryX=0.75;entryY=1;entryDx=0;entryDy=0;" parent="WIyWlLk6GJQsqaUBKTNV-1" source="YXv2_b7XNe8bQNMkJzrX-139" target="YXv2_b7XNe8bQNMkJzrX-93" edge="1">
          <mxGeometry width="160" relative="1" as="geometry">
            <mxPoint x="-110" y="1410" as="sourcePoint" />
            <mxPoint x="-110" y="1264" as="targetPoint" />
            <Array as="points">
              <mxPoint x="-290" y="1350" />
            </Array>
          </mxGeometry>
        </mxCell>
        <mxCell id="YXv2_b7XNe8bQNMkJzrX-148" value="Container" style="swimlane;fontStyle=0;align=center;verticalAlign=top;childLayout=stackLayout;horizontal=1;startSize=26;horizontalStack=0;resizeParent=1;resizeLast=0;collapsible=1;marginBottom=0;rounded=0;shadow=0;strokeWidth=1;" parent="WIyWlLk6GJQsqaUBKTNV-1" vertex="1">
          <mxGeometry x="-1130" y="701" width="200" height="170" as="geometry">
            <mxRectangle x="240" y="585" width="160" height="26" as="alternateBounds" />
          </mxGeometry>
        </mxCell>
        <mxCell id="YXv2_b7XNe8bQNMkJzrX-149" value="- elements: vector&lt;T&gt;" style="text;align=left;verticalAlign=top;spacingLeft=4;spacingRight=4;overflow=hidden;rotatable=0;points=[[0,0.5],[1,0.5]];portConstraint=eastwest;" parent="YXv2_b7XNe8bQNMkJzrX-148" vertex="1">
          <mxGeometry y="26" width="200" height="26" as="geometry" />
        </mxCell>
        <mxCell id="YXv2_b7XNe8bQNMkJzrX-151" value="" style="line;html=1;strokeWidth=1;align=left;verticalAlign=middle;spacingTop=-1;spacingLeft=3;spacingRight=3;rotatable=0;labelPosition=right;points=[];portConstraint=eastwest;" parent="YXv2_b7XNe8bQNMkJzrX-148" vertex="1">
          <mxGeometry y="52" width="200" height="8" as="geometry" />
        </mxCell>
        <mxCell id="CiMp_3YdJ6vmqiC8qv2R-40" value="+ find(item: T): bool" style="text;align=left;verticalAlign=top;spacingLeft=4;spacingRight=4;overflow=hidden;rotatable=0;points=[[0,0.5],[1,0.5]];portConstraint=eastwest;" parent="YXv2_b7XNe8bQNMkJzrX-148" vertex="1">
          <mxGeometry y="60" width="200" height="26" as="geometry" />
        </mxCell>
        <mxCell id="CiMp_3YdJ6vmqiC8qv2R-39" value="+ removeItem(newItem: T): void" style="text;align=left;verticalAlign=top;spacingLeft=4;spacingRight=4;overflow=hidden;rotatable=0;points=[[0,0.5],[1,0.5]];portConstraint=eastwest;" parent="YXv2_b7XNe8bQNMkJzrX-148" vertex="1">
          <mxGeometry y="86" width="200" height="26" as="geometry" />
        </mxCell>
        <mxCell id="CiMp_3YdJ6vmqiC8qv2R-38" value="+ addItem(newItem: T): void" style="text;align=left;verticalAlign=top;spacingLeft=4;spacingRight=4;overflow=hidden;rotatable=0;points=[[0,0.5],[1,0.5]];portConstraint=eastwest;" parent="YXv2_b7XNe8bQNMkJzrX-148" vertex="1">
          <mxGeometry y="112" width="200" height="26" as="geometry" />
        </mxCell>
        <mxCell id="YXv2_b7XNe8bQNMkJzrX-160" value="Container" style="swimlane;fontStyle=0;align=center;verticalAlign=top;childLayout=stackLayout;horizontal=1;startSize=26;horizontalStack=0;resizeParent=1;resizeLast=0;collapsible=1;marginBottom=0;rounded=0;shadow=0;strokeWidth=1;" parent="WIyWlLk6GJQsqaUBKTNV-1" vertex="1">
          <mxGeometry x="-1470" y="706" width="220" height="210" as="geometry">
            <mxRectangle x="240" y="585" width="160" height="26" as="alternateBounds" />
          </mxGeometry>
        </mxCell>
        <mxCell id="YXv2_b7XNe8bQNMkJzrX-161" value="- elements: map&lt;string, T&gt; " style="text;align=left;verticalAlign=top;spacingLeft=4;spacingRight=4;overflow=hidden;rotatable=0;points=[[0,0.5],[1,0.5]];portConstraint=eastwest;" parent="YXv2_b7XNe8bQNMkJzrX-160" vertex="1">
          <mxGeometry y="26" width="220" height="26" as="geometry" />
        </mxCell>
        <mxCell id="YXv2_b7XNe8bQNMkJzrX-162" value="" style="line;html=1;strokeWidth=1;align=left;verticalAlign=middle;spacingTop=-1;spacingLeft=3;spacingRight=3;rotatable=0;labelPosition=right;points=[];portConstraint=eastwest;" parent="YXv2_b7XNe8bQNMkJzrX-160" vertex="1">
          <mxGeometry y="52" width="220" height="8" as="geometry" />
        </mxCell>
        <mxCell id="YXv2_b7XNe8bQNMkJzrX-163" value="+ addItem(newItem: T): void" style="text;align=left;verticalAlign=top;spacingLeft=4;spacingRight=4;overflow=hidden;rotatable=0;points=[[0,0.5],[1,0.5]];portConstraint=eastwest;" parent="YXv2_b7XNe8bQNMkJzrX-160" vertex="1">
          <mxGeometry y="60" width="220" height="26" as="geometry" />
        </mxCell>
        <mxCell id="YXv2_b7XNe8bQNMkJzrX-164" value="+ removeItem(newItem: T): void" style="text;align=left;verticalAlign=top;spacingLeft=4;spacingRight=4;overflow=hidden;rotatable=0;points=[[0,0.5],[1,0.5]];portConstraint=eastwest;" parent="YXv2_b7XNe8bQNMkJzrX-160" vertex="1">
          <mxGeometry y="86" width="220" height="26" as="geometry" />
        </mxCell>
        <mxCell id="YXv2_b7XNe8bQNMkJzrX-165" value="+ find(item: T): bool" style="text;align=left;verticalAlign=top;spacingLeft=4;spacingRight=4;overflow=hidden;rotatable=0;points=[[0,0.5],[1,0.5]];portConstraint=eastwest;" parent="YXv2_b7XNe8bQNMkJzrX-160" vertex="1">
          <mxGeometry y="112" width="220" height="26" as="geometry" />
        </mxCell>
        <mxCell id="CiMp_3YdJ6vmqiC8qv2R-37" value="+ find(itemName: string): T" style="text;align=left;verticalAlign=top;spacingLeft=4;spacingRight=4;overflow=hidden;rotatable=0;points=[[0,0.5],[1,0.5]];portConstraint=eastwest;" parent="YXv2_b7XNe8bQNMkJzrX-160" vertex="1">
          <mxGeometry y="138" width="220" height="26" as="geometry" />
        </mxCell>
        <mxCell id="YXv2_b7XNe8bQNMkJzrX-167" value="+ removeItem(itemName: string): void" style="text;align=left;verticalAlign=top;spacingLeft=4;spacingRight=4;overflow=hidden;rotatable=0;points=[[0,0.5],[1,0.5]];portConstraint=eastwest;" parent="YXv2_b7XNe8bQNMkJzrX-160" vertex="1">
          <mxGeometry y="164" width="220" height="26" as="geometry" />
        </mxCell>
        <mxCell id="YXv2_b7XNe8bQNMkJzrX-169" value="" style="endArrow=none;endSize=12;html=1;rounded=0;entryX=0.25;entryY=0;entryDx=0;entryDy=0;edgeStyle=orthogonalEdgeStyle;endFill=0;startArrow=diamondThin;startFill=1;startSize=12;exitX=0.5;exitY=0;exitDx=0;exitDy=0;" parent="WIyWlLk6GJQsqaUBKTNV-1" source="YXv2_b7XNe8bQNMkJzrX-160" target="YXv2_b7XNe8bQNMkJzrX-48" edge="1">
          <mxGeometry width="160" relative="1" as="geometry">
            <mxPoint x="-1930" y="720" as="sourcePoint" />
            <mxPoint x="-160" y="440" as="targetPoint" />
            <Array as="points">
              <mxPoint x="-1360" y="650" />
              <mxPoint x="-840" y="650" />
              <mxPoint x="-840" y="560" />
              <mxPoint x="10" y="560" />
            </Array>
          </mxGeometry>
        </mxCell>
        <mxCell id="YXv2_b7XNe8bQNMkJzrX-177" value="&lt;span style=&quot;text-align: left;&quot;&gt;&lt;font style=&quot;font-size: 12px;&quot;&gt;Specialization&lt;/font&gt;&lt;/span&gt;" style="rounded=0;whiteSpace=wrap;html=1;" parent="WIyWlLk6GJQsqaUBKTNV-1" vertex="1">
          <mxGeometry x="-1470" y="656" width="90" height="50" as="geometry" />
        </mxCell>
        <mxCell id="YXv2_b7XNe8bQNMkJzrX-179" value="ContainerWithMaxCapacity" style="swimlane;fontStyle=0;align=center;verticalAlign=top;childLayout=stackLayout;horizontal=1;startSize=26;horizontalStack=0;resizeParent=1;resizeLast=0;collapsible=1;marginBottom=0;rounded=0;shadow=0;strokeWidth=1;" parent="WIyWlLk6GJQsqaUBKTNV-1" vertex="1">
          <mxGeometry x="-1380" y="1110" width="210" height="130" as="geometry">
            <mxRectangle x="240" y="585" width="160" height="26" as="alternateBounds" />
          </mxGeometry>
        </mxCell>
        <mxCell id="YXv2_b7XNe8bQNMkJzrX-180" value="- maxCapacity: int" style="text;align=left;verticalAlign=top;spacingLeft=4;spacingRight=4;overflow=hidden;rotatable=0;points=[[0,0.5],[1,0.5]];portConstraint=eastwest;" parent="YXv2_b7XNe8bQNMkJzrX-179" vertex="1">
          <mxGeometry y="26" width="210" height="26" as="geometry" />
        </mxCell>
        <mxCell id="YXv2_b7XNe8bQNMkJzrX-181" value="" style="line;html=1;strokeWidth=1;align=left;verticalAlign=middle;spacingTop=-1;spacingLeft=3;spacingRight=3;rotatable=0;labelPosition=right;points=[];portConstraint=eastwest;" parent="YXv2_b7XNe8bQNMkJzrX-179" vertex="1">
          <mxGeometry y="52" width="210" height="8" as="geometry" />
        </mxCell>
        <mxCell id="YXv2_b7XNe8bQNMkJzrX-182" value="+ addItem(T): void" style="text;align=left;verticalAlign=top;spacingLeft=4;spacingRight=4;overflow=hidden;rotatable=0;points=[[0,0.5],[1,0.5]];portConstraint=eastwest;" parent="YXv2_b7XNe8bQNMkJzrX-179" vertex="1">
          <mxGeometry y="60" width="210" height="26" as="geometry" />
        </mxCell>
        <mxCell id="_Oj8bwuvaNInvp8edqxD-0" value="+ show(): void" style="text;align=left;verticalAlign=top;spacingLeft=4;spacingRight=4;overflow=hidden;rotatable=0;points=[[0,0.5],[1,0.5]];portConstraint=eastwest;" parent="YXv2_b7XNe8bQNMkJzrX-179" vertex="1">
          <mxGeometry y="86" width="210" height="26" as="geometry" />
        </mxCell>
        <mxCell id="YXv2_b7XNe8bQNMkJzrX-189" style="edgeStyle=orthogonalEdgeStyle;rounded=0;orthogonalLoop=1;jettySize=auto;html=1;exitX=0.5;exitY=0;exitDx=0;exitDy=0;endArrow=block;endFill=0;endSize=10;entryX=0.361;entryY=1.004;entryDx=0;entryDy=0;entryPerimeter=0;" parent="WIyWlLk6GJQsqaUBKTNV-1" source="YXv2_b7XNe8bQNMkJzrX-179" target="YXv2_b7XNe8bQNMkJzrX-188" edge="1">
          <mxGeometry relative="1" as="geometry">
            <mxPoint x="-1825" y="1130" as="sourcePoint" />
            <mxPoint x="-1320" y="900" as="targetPoint" />
            <Array as="points">
              <mxPoint x="-1280" y="1110" />
            </Array>
          </mxGeometry>
        </mxCell>
        <mxCell id="YXv2_b7XNe8bQNMkJzrX-190" value="Use" style="endArrow=none;endSize=12;html=1;rounded=0;exitX=0.25;exitY=0;exitDx=0;exitDy=0;edgeStyle=orthogonalEdgeStyle;entryX=0;entryY=0.5;entryDx=0;entryDy=0;startArrow=diamondThin;startFill=1;endFill=0;startSize=12;" parent="WIyWlLk6GJQsqaUBKTNV-1" source="YXv2_b7XNe8bQNMkJzrX-93" target="CiMp_3YdJ6vmqiC8qv2R-52" edge="1">
          <mxGeometry x="0.156" width="160" relative="1" as="geometry">
            <mxPoint x="-570" y="950" as="sourcePoint" />
            <mxPoint x="-1120" y="690" as="targetPoint" />
            <Array as="points">
              <mxPoint x="-638" y="1030" />
              <mxPoint x="-1670" y="1030" />
              <mxPoint x="-1670" y="1223" />
              <mxPoint x="-1600" y="1223" />
            </Array>
            <mxPoint as="offset" />
          </mxGeometry>
        </mxCell>
        <mxCell id="YXv2_b7XNe8bQNMkJzrX-191" value="Use" style="endArrow=none;endSize=12;html=1;rounded=0;edgeStyle=orthogonalEdgeStyle;entryX=0;entryY=0.5;entryDx=0;entryDy=0;exitX=0.25;exitY=0;exitDx=0;exitDy=0;startArrow=diamondThin;startFill=1;endFill=0;startSize=12;" parent="WIyWlLk6GJQsqaUBKTNV-1" source="YXv2_b7XNe8bQNMkJzrX-104" target="CiMp_3YdJ6vmqiC8qv2R-51" edge="1">
          <mxGeometry x="0.1044" y="10" width="160" relative="1" as="geometry">
            <mxPoint x="-1410" y="1220" as="sourcePoint" />
            <mxPoint x="-1645" y="1239" as="targetPoint" />
            <Array as="points">
              <mxPoint x="-1001" y="1060" />
              <mxPoint x="-1640" y="1060" />
              <mxPoint x="-1640" y="1110" />
            </Array>
            <mxPoint as="offset" />
          </mxGeometry>
        </mxCell>
        <mxCell id="YXv2_b7XNe8bQNMkJzrX-192" value="Use" style="endArrow=none;endSize=12;html=1;rounded=0;edgeStyle=orthogonalEdgeStyle;entryX=0;entryY=0.5;entryDx=0;entryDy=0;startArrow=diamondThin;startFill=1;startSize=12;endFill=0;" parent="WIyWlLk6GJQsqaUBKTNV-1" target="CiMp_3YdJ6vmqiC8qv2R-53" edge="1">
          <mxGeometry x="0.2906" width="160" relative="1" as="geometry">
            <mxPoint x="-170" y="1110" as="sourcePoint" />
            <mxPoint x="-1410" y="1070" as="targetPoint" />
            <Array as="points">
              <mxPoint x="-170" y="1000" />
              <mxPoint x="-1700" y="1000" />
              <mxPoint x="-1700" y="1310" />
            </Array>
            <mxPoint x="-1" as="offset" />
          </mxGeometry>
        </mxCell>
        <mxCell id="YXv2_b7XNe8bQNMkJzrX-200" value="Friend with" style="endArrow=open;endSize=12;dashed=1;html=1;rounded=0;edgeStyle=orthogonalEdgeStyle;exitX=0.999;exitY=0.034;exitDx=0;exitDy=0;exitPerimeter=0;" parent="WIyWlLk6GJQsqaUBKTNV-1" source="YXv2_b7XNe8bQNMkJzrX-31" target="YXv2_b7XNe8bQNMkJzrX-48" edge="1">
          <mxGeometry width="160" relative="1" as="geometry">
            <mxPoint x="-430" y="620" as="sourcePoint" />
            <mxPoint x="677" y="600" as="targetPoint" />
            <Array as="points">
              <mxPoint x="-460" y="590" />
            </Array>
          </mxGeometry>
        </mxCell>
        <mxCell id="YXv2_b7XNe8bQNMkJzrX-225" value="std::ostream" style="swimlane;fontStyle=0;align=center;verticalAlign=top;childLayout=stackLayout;horizontal=1;startSize=26;horizontalStack=0;resizeParent=1;resizeLast=0;collapsible=1;marginBottom=0;rounded=0;shadow=0;strokeWidth=1;" parent="WIyWlLk6GJQsqaUBKTNV-1" vertex="1">
          <mxGeometry x="-508" y="361" width="340" height="60" as="geometry">
            <mxRectangle x="240" y="585" width="160" height="26" as="alternateBounds" />
          </mxGeometry>
        </mxCell>
        <mxCell id="YXv2_b7XNe8bQNMkJzrX-227" value="" style="line;html=1;strokeWidth=1;align=left;verticalAlign=middle;spacingTop=-1;spacingLeft=3;spacingRight=3;rotatable=0;labelPosition=right;points=[];portConstraint=eastwest;" parent="YXv2_b7XNe8bQNMkJzrX-225" vertex="1">
          <mxGeometry y="26" width="340" height="8" as="geometry" />
        </mxCell>
        <mxCell id="YXv2_b7XNe8bQNMkJzrX-228" value="+  operator&lt;&lt;(other T): ostream" style="text;align=left;verticalAlign=top;spacingLeft=4;spacingRight=4;overflow=hidden;rotatable=0;points=[[0,0.5],[1,0.5]];portConstraint=eastwest;" parent="YXv2_b7XNe8bQNMkJzrX-225" vertex="1">
          <mxGeometry y="34" width="340" height="26" as="geometry" />
        </mxCell>
        <mxCell id="YXv2_b7XNe8bQNMkJzrX-229" value="Friend with" style="endArrow=open;endSize=12;dashed=1;html=1;rounded=0;exitX=0.5;exitY=0;exitDx=0;exitDy=0;edgeStyle=orthogonalEdgeStyle;entryX=0.5;entryY=1;entryDx=0;entryDy=0;curved=0;" parent="WIyWlLk6GJQsqaUBKTNV-1" source="YXv2_b7XNe8bQNMkJzrX-31" target="YXv2_b7XNe8bQNMkJzrX-225" edge="1">
          <mxGeometry width="160" relative="1" as="geometry">
            <mxPoint x="-308" y="624" as="sourcePoint" />
            <mxPoint x="689" y="601" as="targetPoint" />
            <Array as="points">
              <mxPoint x="-605" y="480" />
              <mxPoint x="-338" y="480" />
            </Array>
          </mxGeometry>
        </mxCell>
        <mxCell id="YXv2_b7XNe8bQNMkJzrX-231" value="Friend with" style="endArrow=open;endSize=12;dashed=1;html=1;rounded=0;exitX=0.5;exitY=0;exitDx=0;exitDy=0;edgeStyle=orthogonalEdgeStyle;entryX=0.75;entryY=1;entryDx=0;entryDy=0;" parent="WIyWlLk6GJQsqaUBKTNV-1" source="YXv2_b7XNe8bQNMkJzrX-48" target="YXv2_b7XNe8bQNMkJzrX-225" edge="1">
          <mxGeometry width="160" relative="1" as="geometry">
            <mxPoint x="45" y="610" as="sourcePoint" />
            <mxPoint x="180" y="260" as="targetPoint" />
            <Array as="points">
              <mxPoint x="120" y="470" />
              <mxPoint x="-253" y="470" />
            </Array>
          </mxGeometry>
        </mxCell>
        <mxCell id="CiMp_3YdJ6vmqiC8qv2R-34" value="T" style="rounded=0;whiteSpace=wrap;html=1;dashed=1;" parent="WIyWlLk6GJQsqaUBKTNV-1" vertex="1">
          <mxGeometry x="-1020" y="525" width="140" height="60" as="geometry" />
        </mxCell>
        <mxCell id="CiMp_3YdJ6vmqiC8qv2R-35" value="T" style="rounded=0;whiteSpace=wrap;html=1;dashed=1;" parent="WIyWlLk6GJQsqaUBKTNV-1" vertex="1">
          <mxGeometry x="-1000" y="676" width="100" height="40" as="geometry" />
        </mxCell>
        <mxCell id="CiMp_3YdJ6vmqiC8qv2R-36" value="&lt;span style=&quot;text-wrap: nowrap;&quot;&gt;DerivedFromPhysicalItem&amp;nbsp;&amp;nbsp;&lt;/span&gt;T" style="rounded=0;whiteSpace=wrap;html=1;dashed=1;" parent="WIyWlLk6GJQsqaUBKTNV-1" vertex="1">
          <mxGeometry x="-1324" y="676" width="167" height="40" as="geometry" />
        </mxCell>
        <mxCell id="CiMp_3YdJ6vmqiC8qv2R-41" value="" style="endArrow=none;endFill=0;endSize=12;html=1;rounded=0;startArrow=none;startFill=0;edgeStyle=orthogonalEdgeStyle;entryX=0;entryY=0.5;entryDx=0;entryDy=0;exitX=1;exitY=0.5;exitDx=0;exitDy=0;targetPerimeterSpacing=12;startSize=12;sourcePerimeterSpacing=12;" parent="WIyWlLk6GJQsqaUBKTNV-1" source="YXv2_b7XNe8bQNMkJzrX-68" target="YXv2_b7XNe8bQNMkJzrX-79" edge="1">
          <mxGeometry width="160" relative="1" as="geometry">
            <mxPoint x="-460" y="867.31" as="sourcePoint" />
            <mxPoint x="539.5600000000004" y="739.9959999999996" as="targetPoint" />
            <Array as="points">
              <mxPoint x="-460" y="800" />
              <mxPoint x="-100" y="800" />
            </Array>
          </mxGeometry>
        </mxCell>
        <mxCell id="iMQA7aacATaisNDD5O3V-2" value="&lt;font style=&quot;font-size: 13px;&quot;&gt;1&lt;/font&gt;" style="edgeLabel;html=1;align=center;verticalAlign=middle;resizable=0;points=[];" parent="CiMp_3YdJ6vmqiC8qv2R-41" vertex="1" connectable="0">
          <mxGeometry x="-0.9135" y="-1" relative="1" as="geometry">
            <mxPoint x="11" y="22" as="offset" />
          </mxGeometry>
        </mxCell>
        <mxCell id="iMQA7aacATaisNDD5O3V-3" value="*" style="edgeLabel;html=1;align=center;verticalAlign=middle;resizable=0;points=[];fontSize=13;" parent="CiMp_3YdJ6vmqiC8qv2R-41" vertex="1" connectable="0">
          <mxGeometry x="0.8828" y="-2" relative="1" as="geometry">
            <mxPoint y="11" as="offset" />
          </mxGeometry>
        </mxCell>
        <mxCell id="CiMp_3YdJ6vmqiC8qv2R-46" value="T" style="rounded=0;whiteSpace=wrap;html=1;dashed=1;" parent="WIyWlLk6GJQsqaUBKTNV-1" vertex="1">
          <mxGeometry x="-1200" y="1090" width="100" height="40" as="geometry" />
        </mxCell>
        <mxCell id="CiMp_3YdJ6vmqiC8qv2R-51" value="&lt;font style=&quot;font-size: 16px;&quot;&gt;Arsenal&lt;/font&gt;" style="html=1;whiteSpace=wrap;" parent="WIyWlLk6GJQsqaUBKTNV-1" vertex="1">
          <mxGeometry x="-1620" y="1080" width="130" height="60" as="geometry" />
        </mxCell>
        <mxCell id="CiMp_3YdJ6vmqiC8qv2R-52" value="&lt;font style=&quot;font-size: 16px;&quot;&gt;MedicalBag&lt;/font&gt;" style="html=1;whiteSpace=wrap;" parent="WIyWlLk6GJQsqaUBKTNV-1" vertex="1">
          <mxGeometry x="-1620" y="1180" width="130" height="60" as="geometry" />
        </mxCell>
        <mxCell id="CiMp_3YdJ6vmqiC8qv2R-53" value="&lt;span style=&quot;font-size: 16px;&quot;&gt;SpellBook&lt;/span&gt;" style="html=1;whiteSpace=wrap;" parent="WIyWlLk6GJQsqaUBKTNV-1" vertex="1">
          <mxGeometry x="-1620" y="1280" width="130" height="60" as="geometry" />
        </mxCell>
        <mxCell id="CiMp_3YdJ6vmqiC8qv2R-54" value="&amp;lt;&amp;lt;bind&amp;gt;&amp;gt;&amp;nbsp;&lt;div&gt;&amp;lt;T -&amp;gt; Weapon&amp;gt;&lt;/div&gt;" style="html=1;verticalAlign=bottom;endArrow=block;rounded=0;exitX=1;exitY=0.5;exitDx=0;exitDy=0;entryX=0;entryY=0.5;entryDx=0;entryDy=0;dashed=1;dashPattern=8 8;endFill=0;endSize=13;edgeStyle=orthogonalEdgeStyle;" parent="WIyWlLk6GJQsqaUBKTNV-1" source="CiMp_3YdJ6vmqiC8qv2R-51" target="YXv2_b7XNe8bQNMkJzrX-182" edge="1">
          <mxGeometry x="-0.6804" width="80" relative="1" as="geometry">
            <mxPoint x="-1310" y="1410" as="sourcePoint" />
            <mxPoint x="-1230" y="1410" as="targetPoint" />
            <mxPoint as="offset" />
            <Array as="points">
              <mxPoint x="-1430" y="1110" />
              <mxPoint x="-1430" y="1183" />
            </Array>
          </mxGeometry>
        </mxCell>
        <mxCell id="CiMp_3YdJ6vmqiC8qv2R-56" value="&amp;lt;&amp;lt;bind&amp;gt;&amp;gt;&amp;nbsp;&lt;div&gt;&amp;lt;T -&amp;gt; Potion&amp;gt;&lt;/div&gt;" style="html=1;verticalAlign=bottom;endArrow=block;rounded=0;exitX=1;exitY=0.5;exitDx=0;exitDy=0;entryX=0;entryY=0.5;entryDx=0;entryDy=0;dashed=1;dashPattern=8 8;endFill=0;endSize=13;edgeStyle=orthogonalEdgeStyle;" parent="WIyWlLk6GJQsqaUBKTNV-1" source="CiMp_3YdJ6vmqiC8qv2R-52" target="YXv2_b7XNe8bQNMkJzrX-182" edge="1">
          <mxGeometry x="-0.5402" width="80" relative="1" as="geometry">
            <mxPoint x="-1840" y="1160" as="sourcePoint" />
            <mxPoint x="-1605" y="1273" as="targetPoint" />
            <mxPoint as="offset" />
            <Array as="points">
              <mxPoint x="-1430" y="1210" />
              <mxPoint x="-1430" y="1183" />
            </Array>
          </mxGeometry>
        </mxCell>
        <mxCell id="MnSVIYeiJ-bNl1kM596A-1" value="&amp;lt;&amp;lt;bind&amp;gt;&amp;gt;&amp;nbsp;&lt;div&gt;&amp;lt;T -&amp;gt; Spell&amp;gt;&lt;/div&gt;" style="html=1;verticalAlign=bottom;endArrow=block;rounded=0;exitX=1;exitY=0.5;exitDx=0;exitDy=0;dashed=1;dashPattern=8 8;endFill=0;endSize=13;edgeStyle=orthogonalEdgeStyle;entryX=0;entryY=0.5;entryDx=0;entryDy=0;" parent="WIyWlLk6GJQsqaUBKTNV-1" source="CiMp_3YdJ6vmqiC8qv2R-53" target="YXv2_b7XNe8bQNMkJzrX-182" edge="1">
          <mxGeometry x="-0.5402" width="80" relative="1" as="geometry">
            <mxPoint x="-1920" y="1273" as="sourcePoint" />
            <mxPoint x="-1660" y="1210" as="targetPoint" />
            <mxPoint as="offset" />
            <Array as="points">
              <mxPoint x="-1430" y="1310" />
              <mxPoint x="-1430" y="1183" />
            </Array>
          </mxGeometry>
        </mxCell>
        <mxCell id="iMQA7aacATaisNDD5O3V-12" style="rounded=0;orthogonalLoop=1;jettySize=auto;html=1;exitX=0;exitY=0;exitDx=90;exitDy=0;exitPerimeter=0;endArrow=none;endFill=0;dashed=1;" parent="WIyWlLk6GJQsqaUBKTNV-1" source="iMQA7aacATaisNDD5O3V-6" edge="1">
          <mxGeometry relative="1" as="geometry">
            <mxPoint x="-330" y="590" as="targetPoint" />
          </mxGeometry>
        </mxCell>
        <mxCell id="iMQA7aacATaisNDD5O3V-6" value="Phyisical item is a friend class&lt;div&gt;&amp;nbsp;of the class Character.&amp;nbsp;&lt;/div&gt;" style="shape=note;size=20;whiteSpace=wrap;html=1;" parent="WIyWlLk6GJQsqaUBKTNV-1" vertex="1">
          <mxGeometry x="-420" y="630" width="200" height="65" as="geometry" />
        </mxCell>
        <mxCell id="iMQA7aacATaisNDD5O3V-13" value="&lt;span style=&quot;text-align: left; text-wrap: nowrap;&quot;&gt;Deals with removing&amp;nbsp;&lt;/span&gt;&lt;div&gt;&lt;span style=&quot;text-align: left; text-wrap: nowrap;&quot;&gt;items from their owners&lt;/span&gt;&lt;/div&gt;" style="shape=note;size=20;whiteSpace=wrap;html=1;" parent="WIyWlLk6GJQsqaUBKTNV-1" vertex="1">
          <mxGeometry x="-350" y="860" width="200" height="65" as="geometry" />
        </mxCell>
        <mxCell id="iMQA7aacATaisNDD5O3V-15" style="rounded=0;orthogonalLoop=1;jettySize=auto;html=1;exitX=0;exitY=0;exitDx=200;exitDy=42.5;exitPerimeter=0;endArrow=none;endFill=0;dashed=1;" parent="WIyWlLk6GJQsqaUBKTNV-1" source="iMQA7aacATaisNDD5O3V-13" target="YXv2_b7XNe8bQNMkJzrX-207" edge="1">
          <mxGeometry relative="1" as="geometry">
            <mxPoint x="-320" y="600" as="targetPoint" />
            <mxPoint x="-320" y="640" as="sourcePoint" />
          </mxGeometry>
        </mxCell>
      </root>
    </mxGraphModel>
  </diagram>
</mxfile>
